<?xml version="1.0" standalone="no"?>
<!DOCTYPE svg PUBLIC "-//W3C//DTD SVG 20010904//EN"
 "http://www.w3.org/TR/2001/REC-SVG-20010904/DTD/svg10.dtd">
<svg version="1.0" xmlns="http://www.w3.org/2000/svg"
 width="121.000000pt" height="121.000000pt" viewBox="0 0 121.000000 121.000000"
 preserveAspectRatio="xMidYMid meet">
<metadata>
Created by potrace 1.11, written by Peter Selinger 2001-2013
</metadata>
<g transform="translate(0.000000,121.000000) scale(0.100000,-0.100000)"
fill="#000000" stroke="none">
<path d="M608 1143 c-9 -2 -24 -15 -32 -29 l-16 -24 -230 0 c-217 0 -231 -1
-250 -20 -19 -19 -20 -33 -20 -444 0 -389 1 -425 17 -445 17 -19 29 -21 223
-23 l205 -3 88 -52 c92 -56 134 -65 159 -35 14 16 365 619 401 689 23 44 21
76 -5 100 -33 29 -472 281 -500 287 -13 2 -31 2 -40 -1z m267 -195 c116 -67
215 -126 222 -132 10 -9 -1 -34 -46 -111 -32 -55 -122 -211 -201 -347 -124
-216 -144 -246 -160 -238 -34 18 -455 262 -459 265 -2 2 13 30 32 62 19 32
105 182 192 333 87 151 162 281 168 288 14 17 12 18 252 -120z m-385 30 c-17
-29 -38 -68 -47 -86 -10 -18 -24 -32 -32 -31 -51 5 -75 -3 -107 -35 -24 -24
-34 -43 -34 -64 0 -24 -7 -34 -34 -50 -72 -42 -92 -122 -47 -183 l24 -32 -26
-48 c-15 -26 -27 -54 -27 -62 0 -27 40 -65 108 -103 121 -67 122 -64 -21 -64
l-127 0 0 405 0 405 201 0 201 0 -32 -52z"/>
<path d="M655 858 c-11 -6 -24 -17 -28 -25 -4 -7 -19 -13 -33 -13 -42 0 -81
-27 -94 -64 -12 -37 -5 -61 28 -98 13 -16 12 -18 -12 -29 -32 -15 -33 -26 -2
-40 20 -10 23 -16 19 -48 -4 -30 0 -43 22 -69 l27 -32 -27 -10 c-15 -6 -25
-16 -23 -23 6 -15 149 -98 160 -91 4 3 5 18 1 34 -6 33 -5 34 31 20 72 -27
142 63 104 133 -6 12 -13 42 -14 67 -4 75 -15 129 -29 140 -10 9 -11 18 -4 36
13 36 2 70 -33 99 -32 27 -61 31 -93 13z"/>
</g>
</svg>
